{
  "accessors": [
    {
      "bufferView": 2,
      "componentType": 5126,
      "count": 31001,
      "max": [
        10.672430038452148,
        8.5428600311279297,
        12.866495132446289
      ],
      "min": [
        -10.668163299560547,
        -8.5513114929199219,
        -12.867066383361816
      ],
      "type": "VEC3"
    },
    {
      "bufferView": 2,
      "byteOffset": 372012,
      "componentType": 5126,
      "count": 31001,
      "max": [
        0.9999198317527771,
        0.99988985061645508,
        0.99988847970962524
      ],
      "min": [
        -0.9999658465385437,
        -0.99994200468063354,
        -0.9998096227645874
      ],
      "type": "VEC3"
    },
    {
      "bufferView": 3,
      "componentType": 5126,
      "count": 31001,
      "max": [
        0.99999135732650757,
        0.99955612421035767,
        0.99998593330383301,
        1
      ],
      "min": [
        -0.99964570999145508,
        -0.99997454881668091,
        -0.9998205304145813,
        -1
      ],
      "type": "VEC4"
    },
    {
      "bufferView": 3,
      "byteOffset": 496016,
      "componentType": 5126,
      "count": 31001,
      "max": [
        1,
        1,
        1,
        1
      ],
      "min": [
        1,
        1,
        1,
        1
      ],
      "type": "VEC4"
    },
    {
      "bufferView": 1,
      "componentType": 5126,
      "count": 31001,
      "max": [
        0.99800002574920654,
        0.94395065307617188
      ],
      "min": [
        0.0020000000949949026,
        0.0020000000949949026
      ],
      "type": "VEC2"
    },
    {
      "bufferView": 1,
      "byteOffset": 248008,
      "componentType": 5126,
      "count": 31001,
      "max": [
        0.99800002574920654,
        0.94395065307617188
      ],
      "min": [
        0.0020000000949949026,
        0.0020000000949949026
      ],
      "type": "VEC2"
    },
    {
      "bufferView": 0,
      "componentType": 5125,
      "count": 179592,
      "max": [
        31000
      ],
      "min": [
        0
      ],
      "type": "SCALAR"
    },
    {
      "bufferView": 2,
      "byteOffset": 744024,
      "componentType": 5126,
      "count": 30755,
      "max": [
        10.772340774536133,
        8.6427450180053711,
        12.964300155639648
      ],
      "min": [
        -10.763797760009766,
        -8.6512966156005859,
        -12.966832160949707
      ],
      "type": "VEC3"
    },
    {
      "bufferView": 2,
      "byteOffset": 1113084,
      "componentType": 5126,
      "count": 30755,
      "max": [
        0.99999356269836426,
        0.99988013505935669,
        0.99981176853179932
      ],
      "min": [
        -0.99990940093994141,
        -0.99987292289733887,
        -0.99988633394241333
      ],
      "type": "VEC3"
    },
    {
      "bufferView": 3,
      "byteOffset": 992032,
      "componentType": 5126,
      "count": 30755,
      "max": [
        0.99999850988388062,
        0.99921739101409912,
        0.99993008375167847,
        1
      ],
      "min": [
        -0.99837267398834229,
        -0.9999459981918335,
        -0.99981266260147095,
        -1
      ],
      "type": "VEC4"
    },
    {
      "bufferView": 3,
      "byteOffset": 1484112,
      "componentType": 5126,
      "count": 30755,
      "max": [
        1,
        1,
        1,
        1
      ],
      "min": [
        1,
        1,
        1,
        1
      ],
      "type": "VEC4"
    },
    {
      "bufferView": 1,
      "byteOffset": 496016,
      "componentType": 5126,
      "count": 30755,
      "max": [
        0.99800002574920654,
        0.94395065307617188
      ],
      "min": [
        0.0020000000949949026,
        0.0020000000949949026
      ],
      "type": "VEC2"
    },
    {
      "bufferView": 1,
      "byteOffset": 742056,
      "componentType": 5126,
      "count": 30755,
      "max": [
        0.99800002574920654,
        0.94395065307617188
      ],
      "min": [
        0.0020000000949949026,
        0.0020000000949949026
      ],
      "type": "VEC2"
    },
    {
      "bufferView": 0,
      "byteOffset": 718368,
      "componentType": 5125,
      "count": 178644,
      "max": [
        30754
      ],
      "min": [
        0
      ],
      "type": "SCALAR"
    }
  ],
  "asset": {
    "extras": {
      "author": "tanxingke (https://sketchfab.com/tanxingke)",
      "license": "CC-BY-4.0 (http://creativecommons.org/licenses/by/4.0/)",
      "source": "https://sketchfab.com/3d-models/pikachu-c5bb96db34384cb2b8bda014c3ea6d12",
      "title": "皮卡丘 ピカチュウ Pikachu"
    },
    "generator": "Sketchfab-6.96.0",
    "version": "2.0"
  },
  "bufferViews": [
    {
      "buffer": 0,
      "byteLength": 1432944,
      "byteOffset": 0,
      "name": "floatBufferViews",
      "target": 34963
    },
    {
      "buffer": 0,
      "byteLength": 988096,
      "byteOffset": 1432944,
      "byteStride": 8,
      "name": "floatBufferViews",
      "target": 34962
    },
    {
      "buffer": 0,
      "byteLength": 1482144,
      "byteOffset": 2421040,
      "byteStride": 12,
      "name": "floatBufferViews",
      "target": 34962
    },
    {
      "buffer": 0,
      "byteLength": 1976192,
      "byteOffset": 3903184,
      "byteStride": 16,
      "name": "floatBufferViews",
      "target": 34962
    }
  ],
  "buffers": [
    {
      "byteLength": 5879376,
      "uri": "scene.bin"
    }
  ],
  "images": [
    {
      "uri": "textures/Material_81_baseColor.jpeg"
    },
    {
      "uri": "textures/Material_81_metallicRoughness.png"
    },
    {
      "uri": "textures/Material_81_normal.png"
    },
    {
      "uri": "textures/24_-_Default_baseColor.png"
    }
  ],
  "materials": [
    {
      "doubleSided": true,
      "name": "Material_81",
      "normalTexture": {
        "index": 2,
        "scale": 0.50492666952265131,
        "texCoord": 0
      },
      "occlusionTexture": {
        "index": 1,
        "strength": 1,
        "texCoord": 0
      },
      "pbrMetallicRoughness": {
        "baseColorFactor": [
          1,
          1,
          1,
          1
        ],
        "baseColorTexture": {
          "index": 0,
          "texCoord": 0
        },
        "metallicFactor": 0.94517824184969534,
        "metallicRoughnessTexture": {
          "index": 1,
          "texCoord": 0
        },
        "roughnessFactor": 0.71876314751007275
      }
    },
    {
      "alphaMode": "BLEND",
      "doubleSided": true,
      "name": "24_-_Default",
      "pbrMetallicRoughness": {
        "baseColorFactor": [
          0.0078431400000000002,
          0.0078431400000000002,
          0.0078431400000000002,
          1
        ],
        "baseColorTexture": {
          "index": 3,
          "texCoord": 0
        },
        "metallicFactor": 0,
        "roughnessFactor": 1
      }
    }
  ],
  "meshes": [
    {
      "name": "bikaqiu_low_Material #81_0",
      "primitives": [
        {
          "attributes": {
            "COLOR_0": 3,
            "NORMAL": 1,
            "POSITION": 0,
            "TANGENT": 2,
            "TEXCOORD_0": 4,
            "TEXCOORD_1": 5
          },
          "indices": 6,
          "material": 0,
          "mode": 4
        }
      ]
    },
    {
      "name": "bikaqiu_low_ke_24 - Default_0",
      "primitives": [
        {
          "attributes": {
            "COLOR_0": 10,
            "NORMAL": 8,
            "POSITION": 7,
            "TANGENT": 9,
            "TEXCOORD_0": 11,
            "TEXCOORD_1": 12
          },
          "indices": 13,
          "material": 1,
          "mode": 4
        }
      ]
    }
  ],
  "nodes": [
    {
      "children": [
        1
      ],
      "name": "RootNode (gltf orientation matrix)",
      "rotation": [
        -0.70710678118654746,
        -0,
        -0,
        0.70710678118654757
      ]
    },
    {
      "children": [
        2
      ],
      "matrix": [
        1,
        0,
        0,
        0,
        0,
        1,
        0,
        0,
        0,
        0,
        1,
        0,
        0,
        4.4408920985006262e-15,
        0,
        1
      ],
      "name": "RootNode (model correction matrix)"
    },
    {
      "children": [
        3
      ],
      "matrix": [
        1,
        0,
        0,
        0,
        0,
        0,
        1,
        0,
        0,
        -1,
        0,
        0,
        0,
        0,
        0,
        1
      ],
      "name": "9bfcf95d7bb5407eac87ae3f7d06361d.fbx"
    },
    {
      "children": [
        4,
        7
      ],
      "name": "RootNode"
    },
    {
      "children": [
        5
      ],
      "matrix": [
        0.98999994993209839,
        0,
        0,
        0,
        0,
        2.1982414775847356e-16,
        -0.98999994993209839,
        0,
        0,
        0.98999994993209839,
        2.1982414775847356e-16,
        0,
        0.59524774551391602,
        0.0377495177090168,
        -0.037486512213945389,
        1
      ],
      "name": "bikaqiu_low"
    },
    {
      "children": [
        6
      ],
      "matrix": [
        1,
        0,
        -0,
        0,
        0,
        1,
        0,
        0,
        0,
        0,
        1,
        0,
        -0.0021333550103008747,
        0.0042257341556251049,
        0.00028562545776367188,
        1
      ],
      "name": ""
    },
    {
      "mesh": 0,
      "name": "bikaqiu_low_Material #81_0"
    },
    {
      "children": [
        8
      ],
      "matrix": [
        0.98999994993209839,
        0,
        0,
        0,
        0,
        2.1982414775847356e-16,
        -0.98999994993209839,
        0,
        0,
        0.98999994993209839,
        2.1982414775847356e-16,
        0,
        0.59736448526382446,
        0.036778941750526428,
        -0.037436947226524353,
        1
      ],
      "name": "bikaqiu_low_ke"
    },
    {
      "children": [
        9
      ],
      "matrix": [
        1,
        0,
        -0,
        0,
        0,
        1,
        0,
        0,
        0,
        0,
        1,
        0,
        -0.0042714760638773441,
        0.0042757997289299965,
        0.0012660053325816989,
        1
      ],
      "name": ""
    },
    {
      "mesh": 1,
      "name": "bikaqiu_low_ke_24 - Default_0"
    }
  ],
  "samplers": [
    {
      "magFilter": 9729,
      "minFilter": 9987,
      "wrapS": 10497,
      "wrapT": 10497
    }
  ],
  "scene": 0,
  "scenes": [
    {
      "name": "OSG_Scene",
      "nodes": [
        0
      ]
    }
  ],
  "textures": [
    {
      "sampler": 0,
      "source": 0
    },
    {
      "sampler": 0,
      "source": 1
    },
    {
      "sampler": 0,
      "source": 2
    },
    {
      "sampler": 0,
      "source": 3
    }
  ]
}

